<?xml version="1.0" encoding="utf-8"?>
<svg version="1.1" id="Camada_1" xmlns="http://www.w3.org/2000/svg" xmlns:xlink="http://www.w3.org/1999/xlink" x="0px" y="0px"
	 viewBox="0 0 500 500" style="enable-background:new 0 0 500 500;" xml:space="preserve">
<style type="text/css">
	.st0{fill:url(#SVGID_1_);}
	.st1{fill:#02163D;}
</style>
<linearGradient id="SVGID_1_" gradientUnits="userSpaceOnUse" x1="52.0002" y1="249.9999" x2="447.9997" y2="249.9999">
	<stop  offset="0" style="stop-color:#2369F1"/>
	<stop  offset="0.999" style="stop-color:#06C1EF"/>
</linearGradient>
<path class="st0" d="M390,110c-77.3-77.3-202.7-77.3-280,0c-77.3,77.3-77.3,202.7,0,280c77.3,77.3,202.7,77.3,280,0
	C467.3,312.7,467.3,187.3,390,110z M303.1,303.1c-29.3,29.3-76.9,29.3-106.2,0c-29.3-29.3-29.3-76.9,0-106.2
	c29.3-29.3,76.9-29.3,106.2,0C332.4,226.2,332.4,273.8,303.1,303.1z"/>
<path class="st1" d="M57.2,353.6v85.5c0,2,1.6,3.6,3.6,3.6h85.5c3.8,0,5-5.1,1.6-6.8c-17.4-9.1-33.8-20.9-48.4-35.5
	c-14.6-14.6-26.5-31-35.5-48.4C62.3,348.7,57.2,349.8,57.2,353.6z"/>
</svg>
